<svg width="200" height="200" viewBox="0 0 200 200" fill="none" xmlns="http://www.w3.org/2000/svg">
  <circle cx="100" cy="100" r="90" fill="#FEE2E2" />
  <circle cx="100" cy="100" r="70" fill="#FEF2F2" />
  <path d="M65 70C65 60 75 50 100 50C125 50 135 60 135 70C135 85 125 90 115 90C105 90 105 80 100 80C95 80 95 90 85 90C75 90 65 85 65 70Z" fill="#E74C3C" />
  <path d="M75 120C75 110 85 105 100 105C115 105 125 110 125 120C125 130 115 140 100 140C85 140 75 130 75 120Z" fill="#FFB100" />
  <path d="M80 90C80 85 85 80 100 80C115 80 120 85 120 90C120 95 115 100 100 100C85 100 80 95 80 90Z" fill="#FFFFFF" />
  <path d="M65 135C65 125 85 115 100 115C115 115 135 125 135 135C135 145 115 155 100 155C85 155 65 145 65 135Z" fill="#B91C1C" />
  <path d="M40 100C40 95 45 90 50 90C55 90 60 95 60 100C60 120 65 140 100 140C135 140 140 120 140 100C140 95 145 90 150 90C155 90 160 95 160 100C160 130 140 160 100 160C60 160 40 130 40 100Z" fill="#27AE60" />
  <path d="M100 170C60 170 40 145 40 130C40 125 45 120 50 120C55 120 60 125 60 130C60 138 75 150 100 150C125 150 140 138 140 130C140 125 145 120 150 120C155 120 160 125 160 130C160 145 140 170 100 170Z" fill="#27AE60" />
  <path d="M70 65C70 63 75 60 80 60C85 60 90 63 90 65C90 67 85 70 80 70C75 70 70 67 70 65Z" fill="#FFFFFF" />
  <path d="M110 65C110 63 115 60 120 60C125 60 130 63 130 65C130 67 125 70 120 70C115 70 110 67 110 65Z" fill="#FFFFFF" />
</svg>