<svg width="100" height="100" viewBox="0 0 100 100" fill="none" xmlns="http://www.w3.org/2000/svg">
  <circle cx="50" cy="50" r="45" fill="#EFF6FF" />
  <path d="M35 25L45 25L60 75L50 75L35 25Z" fill="#DBEAFE" />
  <path d="M45 25L55 25L65 75L55 75L45 25Z" fill="#93C5FD" />
  <path d="M35 30L55 30L55 35L35 35L35 30Z" fill="#DBEAFE" />
  <path d="M35 35C35 35 40 40 45 40C50 40 55 35 55 35L35 35Z" fill="#BFDBFE" />
  <circle cx="40" cy="50" r="3" fill="#60A5FA" />
  <circle cx="50" cy="60" r="2" fill="#3B82F6" />
  <circle cx="45" cy="45" r="2" fill="#60A5FA" />
  <circle cx="50" cy="55" r="3" fill="#60A5FA" />
</svg>