<svg width="100" height="100" viewBox="0 0 100 100" fill="none" xmlns="http://www.w3.org/2000/svg">
  <circle cx="50" cy="50" r="45" fill="#FEF3C7" />
  <path d="M30 35C30 25 40 25 50 25C60 25 70 25 70 35C70 55 60 65 50 65C40 65 30 55 30 35Z" fill="#FBBF24" />
  <path d="M35 35C35 30 40 30 50 30C60 30 65 30 65 35C65 50 60 55 50 55C40 55 35 50 35 35Z" fill="#FDE68A" />
  <path d="M25 70C25 65 35 60 50 60C65 60 75 65 75 70C75 75 65 80 50 80C35 80 25 75 25 70Z" fill="#D97706" />
  <path d="M30 70C30 68 35 65 50 65C65 65 70 68 70 70C70 72 65 75 50 75C35 75 30 72 30 70Z" fill="#F59E0B" />
</svg>