<svg width="100" height="100" viewBox="0 0 100 100" fill="none" xmlns="http://www.w3.org/2000/svg">
  <circle cx="50" cy="50" r="45" fill="#FEF3C7" />
  <rect x="25" y="65" width="50" height="10" rx="2" fill="#78350F" />
  <rect x="30" y="55" width="40" height="5" fill="#92400E" />
  <rect x="30" y="60" width="40" height="5" fill="#78350F" />
  <rect x="32" y="30" width="4" height="25" fill="#78350F" />
  <rect x="48" y="30" width="4" height="25" fill="#78350F" />
  <rect x="64" y="30" width="4" height="25" fill="#78350F" />
  <circle cx="34" cy="30" r="5" fill="#DC2626" />
  <circle cx="50" cy="35" r="5" fill="#DC2626" />
  <circle cx="66" cy="28" r="5" fill="#DC2626" />
  <path d="M25 75C25 73 35 72 50 72C65 72 75 73 75 75C75 77 65 78 50 78C35 78 25 77 25 75Z" fill="#92400E" />
</svg>