<svg width="100" height="100" viewBox="0 0 100 100" fill="none" xmlns="http://www.w3.org/2000/svg">
  <circle cx="50" cy="50" r="45" fill="#ECFDF5" />
  <path d="M25 60C25 45 35 30 50 30C65 30 75 45 75 60C75 70 65 75 50 75C35 75 25 70 25 60Z" fill="#D1FAE5" />
  <circle cx="40" cy="45" r="5" fill="#10B981" />
  <circle cx="55" cy="50" r="7" fill="#34D399" />
  <circle cx="45" cy="60" r="6" fill="#6EE7B7" />
  <circle cx="65" cy="55" r="4" fill="#34D399" />
  <circle cx="35" cy="55" r="3" fill="#6EE7B7" />
  <circle cx="60" cy="40" r="4" fill="#10B981" />
  <path d="M35 25C35 20 40 15 50 15C60 15 65 20 65 25C65 30 60 35 50 35C40 35 35 30 35 25Z" fill="#059669" />
  <path d="M45 25C45 23 47 20 50 20C53 20 55 23 55 25C55 27 53 30 50 30C47 30 45 27 45 25Z" fill="#10B981" />
</svg>